<svg xmlns="http://www.w3.org/2000/svg" viewBox="0 0 256 256" role="img" aria-label="">
  <defs>
    <radialGradient id="water" cx="50%" cy="38%" r="70%">
      <stop offset="0" stop-color="#d7f6ff"/>
      <stop offset=".42" stop-color="#56b6c8"/>
      <stop offset="1" stop-color="#06414d"/>
    </radialGradient>
    <linearGradient id="dolphin" x1="58" y1="58" x2="205" y2="183" gradientUnits="userSpaceOnUse">
      <stop offset="0" stop-color="#b8b6ca"/>
      <stop offset=".55" stop-color="#706b85"/>
      <stop offset="1" stop-color="#342f43"/>
    </linearGradient>
    <linearGradient id="lens" x1="71" y1="93" x2="183" y2="128" gradientUnits="userSpaceOnUse">
      <stop offset="0" stop-color="#202532"/>
      <stop offset="1" stop-color="#05070b"/>
    </linearGradient>
  </defs>
  <rect width="256" height="256" fill="url(#water)"/>
  <path d="M0 182c28-22 53-19 80-6 28 14 51 18 88 2 36-16 62-16 88 3v75H0v-74Z" fill="#0a5f69" opacity=".72"/>
  <path d="M8 48c35-27 77-22 103-4 40 27 78 12 137 7v74c-17-9-37-13-60-10-39 5-67 29-110 17-34-10-54-39-70-84Z" fill="#e8fbff" opacity=".42"/>
  <path d="M33 148c26-58 89-86 157-76 18 3 27 13 28 29 2 25-29 56-75 69-45 13-87 6-110-22Z" fill="url(#dolphin)"/>
  <path d="M33 148c30 17 68 19 113 7 34-9 59-27 72-48-5 27-37 57-80 70-47 14-86 4-105-29Z" fill="#201d2a" opacity=".22"/>
  <path d="M64 152c20 16 56 23 100 4-19 24-63 35-94 19-14-8-19-16-6-23Z" fill="#e6d7c5" opacity=".86"/>
  <path d="M167 117c4-4 9-5 14-2 4 3 3 9-2 12-6 4-16-3-12-10Z" fill="#25202f" opacity=".6"/>
  <path d="M65 95c20-20 43-20 67 0-12-28-37-45-68-38-9 13-11 25 1 38Z" fill="#2f2a3d" opacity=".9"/>
  <path d="M52 101c31-10 60-8 87 2 6 2 9 8 7 14l-7 27c-2 8-9 12-17 10l-54-15c-7-2-12-8-12-15l-4-23Zm99 5c25-8 50-7 75 2l-5 28c-1 8-9 13-17 12l-47-8c-8-1-14-8-13-16l2-10c1-4 2-6 5-8Z" fill="url(#lens)"/>
  <path d="M141 115c8-3 15-3 22 1" fill="none" stroke="#0b0e15" stroke-width="8" stroke-linecap="round"/>
  <path d="M51 101c-9 0-16 3-22 8" fill="none" stroke="#11131b" stroke-width="7" stroke-linecap="round"/>
  <path d="M223 109c10-1 18 1 25 7" fill="none" stroke="#11131b" stroke-width="7" stroke-linecap="round"/>
  <path d="M63 106c18-5 40-4 64 3" fill="none" stroke="#ffffff" stroke-opacity=".2" stroke-width="4" stroke-linecap="round"/>
  <path d="M154 112c18-4 38-3 59 4" fill="none" stroke="#ffffff" stroke-opacity=".18" stroke-width="4" stroke-linecap="round"/>
  <path d="M18 42c18 14 39 17 62 9M5 70c20 9 40 9 61 0M183 42c28 10 51 9 70-4M189 185c20-14 42-17 65-8" fill="none" stroke="#fff" stroke-opacity=".42" stroke-width="7" stroke-linecap="round"/>
</svg>
